PathFileType	4	(X/Y/Z)	./resultDataOpenSim/trcMotMarkerGrf/sub09/qtm-14-06.trc
DataRate	CameraRate	NumFrames	NumMarkers	Units	OrigDataRate	OrigDataStartFrame	OrigNumFrames
250.000000	250.000000	8	24	m	250.000000	123	490
Frame#	Time	L.Toe.Tip			R.Toe.Tip			L.Ankle.Lat			R.Ankle.Lat			L.Ankle.Med			R.Ankle.Med			L.Heel			R.Heel			L.Knee.Lat			R.Knee.Lat			L.Knee.Med			R.Knee.Med			L.Thigh.Upper			R.Thigh.Upper			L.ASIS			R.ASIS			V.Sacral			L.Acromium			R.Acromium			C7			L.Elbow			R.Elbow			L.Wrist.Lat			R.Wrist.Lat
		X1	Y1	Z1	X2	Y2	Z2	X3	Y3	Z3	X4	Y4	Z4	X5	Y5	Z5	X6	Y6	Z6	X7	Y7	Z7	X8	Y8	Z8	X9	Y9	Z9	X10	Y10	Z10	X11	Y11	Z11	X12	Y12	Z12	X13	Y13	Z13	X14	Y14	Z14	X15	Y15	Z15	X16	Y16	Z16	X17	Y17	Z17	X18	Y18	Z18	X19	Y19	Z19	X20	Y20	Z20	X21	Y21	Z21	X22	Y22	Z22	X23	Y23	Z23	X24	Y24	Z24

123	0.488	-0.15059262	0.093620063	-0.022102089	-0.57496288	0.038864628	0.08218805	-0.30318038	0.092567365	-0.058167085	-0.72320233	0.055808859	0.11539343	-0.28454735	0.11393232	0.037583678	-0.71096552	0.096376401	0.025632514	-0.35921161	0.037694006	-0.0088396727	-0.79135234	0.035568566	0.063697234	-0.35791234	0.50855551	-0.084845658	-0.60286947	0.50311934	0.18866612	-0.36120616	0.50171669	0.040013739	-0.62403441	0.49478925	0.059136964	-0.53860973	0.88892643	-0.1238094	-0.57411408	0.90469258	0.24391565	-0.46952073	0.97777942	-0.061159511	-0.47187466	0.98559899	0.17812654	-0.63628205	1.035983	0.053561958	-0.48581097	1.4327567	-0.11278042	-0.4919592	1.4455994	0.21547131	-0.5552438	1.4879531	0.053592376	-0.64064256	1.0990555	-0.1692816	-0.5935352	1.0947328	0.31976495	-0.51549529	0.86803171	-0.20777347	-0.40323606	0.89664456	0.29101939
124	0.492	-0.13267866	0.097326057	-0.020380926	-0.57492676	0.038909773	0.082323403	-0.28523714	0.09235264	-0.057098607	-0.72317217	0.055958024	0.11525617	-0.26739919	0.11472818	0.038719196	-0.71071329	0.09638881	0.025516924	-0.33989886	0.036257648	-0.0077308652	-0.79132037	0.035651498	0.063479458	-0.35164529	0.50645879	-0.085187672	-0.59989695	0.50308168	0.18944369	-0.3554077	0.49939979	0.039723777	-0.62146069	0.49433521	0.059281588	-0.53202553	0.88696314	-0.12365513	-0.56855622	0.90376759	0.24374329	-0.46274766	0.97606734	-0.060969142	-0.46578453	0.98440144	0.17832841	-0.62989461	1.0342974	0.053325237	-0.47969869	1.4312847	-0.11277918	-0.48626972	1.4442582	0.21551838	-0.5493402	1.4865751	0.053500253	-0.63501814	1.0979135	-0.16937407	-0.58743088	1.0932138	0.3199813	-0.5108666	0.86637861	-0.20815483	-0.39626154	0.89592747	0.29094885
125	0.496	-0.11521369	0.10111957	-0.018648133	-0.57492118	0.038888193	0.082405824	-0.2676362	0.09241769	-0.055958575	-0.72317695	0.056148598	0.11512298	-0.25053778	0.1158318	0.039878186	-0.71048102	0.09639693	0.025408208	-0.32094398	0.035170413	-0.0064827437	-0.79132951	0.035758661	0.063399949	-0.3453033	0.50430348	-0.085480317	-0.59697025	0.50290533	0.19037614	-0.34932394	0.49697603	0.039669402	-0.61871608	0.49384018	0.059444506	-0.52527321	0.88494606	-0.1234495	-0.56302803	0.90282328	0.24360875	-0.45597953	0.97429702	-0.060738197	-0.45968824	0.98316373	0.17854148	-0.62353727	1.0325965	0.052944867	-0.47358327	1.4297542	-0.11278197	-0.48057056	1.4428494	0.21556204	-0.54344276	1.4851798	0.053425897	-0.62935537	1.0967013	-0.16942508	-0.58128459	1.0916244	0.32015688	-0.50628594	0.8646412	-0.20856248	-0.38931846	0.89512292	0.29091299
126	0.5	-0.098197682	0.10494947	-0.016986349	-0.57493962	0.038799585	0.082442244	-0.25044303	0.09272388	-0.054805599	-0.72319345	0.056323324	0.11501531	-0.23403786	0.11712458	0.040961836	-0.71026877	0.096397335	0.02530586	-0.30239966	0.034404456	-0.0051560846	-0.79135424	0.035888649	0.063397049	-0.33890057	0.50208913	-0.085629888	-0.59429686	0.50234484	0.19109136	-0.342849	0.49447009	0.039941099	-0.61578812	0.49329635	0.059631539	-0.51834587	0.88287986	-0.12319078	-0.5575489	0.90184858	0.24349547	-0.44921252	0.97247568	-0.060472554	-0.45358865	0.98187898	0.17877013	-0.61734313	1.0309742	0.052144572	-0.46747118	1.4281672	-0.11279705	-0.47486015	1.4413746	0.2156032	-0.5375319	1.4837517	0.053362295	-0.62365471	1.0954162	-0.16944428	-0.5751247	1.0899677	0.32030307	-0.50176171	0.86284096	-0.2090064	-0.38240604	0.89422702	0.2909044
127	0.504	-0.081628968	0.10875797	-0.015416503	-0.57496167	0.038697236	0.082483766	-0.23370843	0.093220445	-0.053706497	-0.7232173	0.05645061	0.11493422	-0.21795181	0.11851352	0.041914694	-0.71006427	0.096391159	0.025207189	-0.2843045	0.033920407	-0.0038542073	-0.79133788	0.036023794	0.063301437	-0.33249999	0.49985144	-0.08559618	-0.59190797	0.50129518	0.19130709	-0.33613269	0.49191352	0.040463315	-0.61265855	0.4927011	0.059813773	-0.51134769	0.88075905	-0.12288479	-0.55208901	0.90083312	0.24337315	-0.44245117	0.97060551	-0.060186812	-0.44749439	0.98054937	0.17900981	-0.61136671	1.0294881	0.050784437	-0.46136273	1.4265247	-0.11282037	-0.46913936	1.4398378	0.21564704	-0.53157259	1.4822604	0.053288114	-0.61784525	1.0940438	-0.16951766	-0.56896007	1.0882392	0.32042131	-0.49729013	0.86099139	-0.20947702	-0.37552562	0.89324317	0.29092252
128	0.508	-0.06550909	0.11248209	-0.013907462	-0.57497539	0.038623377	0.082560107	-0.21746368	0.093862979	-0.052716671	-0.72324938	0.056542823	0.11487155	-0.20227625	0.11995951	0.042718441	-0.70985146	0.096382175	0.025107358	-0.26668764	0.033679831	-0.0026907943	-0.7912724	0.036163503	0.063072273	-0.32616033	0.49764723	-0.08542472	-0.58960532	0.49986866	0.19100418	-0.32944781	0.48934833	0.041065311	-0.60931884	0.49205764	0.059958805	-0.50442992	0.87857614	-0.12254952	-0.54660369	0.8997633	0.2432243	-0.43570615	0.96869115	-0.059896701	-0.44139828	0.97918317	0.17925027	-0.60547387	1.0280449	0.049180397	-0.45524555	1.4248274	-0.11283965	-0.46340642	1.4382458	0.21569754	-0.52555427	1.4806895	0.053187553	-0.61185059	1.092573	-0.16973806	-0.56278801	1.0864396	0.32050889	-0.49282101	0.85909446	-0.20994558	-0.36867964	0.89217971	0.29097201
129	0.512	-0.049841239	0.116066	-0.012421531	-0.57498716	0.038581878	0.082666608	-0.20169735	0.094629175	-0.051849345	-0.72328416	0.05662462	0.11482337	-0.18699054	0.12144497	0.043383095	-0.70961624	0.096375126	0.02499779	-0.24957634	0.033643978	-0.0017435352	-0.79119873	0.036322305	0.062811198	-0.31986399	0.4955108	-0.085187961	-0.58705812	0.4983385	0.19041896	-0.32291587	0.48683252	0.041652049	-0.60579239	0.49135848	0.060081487	-0.49763526	0.87633327	-0.12221446	-0.5410609	0.89861968	0.2430509	-0.42898362	0.96674195	-0.059613602	-0.43528474	0.97778483	0.17948308	-0.59943684	1.0264573	0.047927583	-0.4491092	1.4230789	-0.11285526	-0.45765947	1.4366045	0.21575365	-0.51949631	1.4790515	0.053069233	-0.60570829	1.091016	-0.17006832	-0.55660005	1.0845735	0.32055904	-0.48827693	0.8571408	-0.21038593	-0.36186822	0.89104522	0.29104881
130	0.516	-0.034637204	0.11946777	-0.010931641	-0.57501517	0.038565087	0.082799295	-0.18638176	0.095506001	-0.051073933	-0.72331121	0.056713576	0.11478668	-0.17212093	0.12293941	0.043973531	-0.70934934	0.096375972	0.024869949	-0.23298988	0.033758465	-0.0010280088	-0.79114435	0.036501943	0.06259058	-0.31355053	0.49343599	-0.084928086	-0.58393739	0.49696424	0.18986988	-0.31650455	0.48443078	0.042204656	-0.60212228	0.49059372	0.060215411	-0.49091106	0.87404052	-0.12191259	-0.53545752	0.89738526	0.24286603	-0.42228564	0.96476929	-0.059345898	-0.42915317	0.97635186	0.17970571	-0.59316902	1.0246473	0.04730764	-0.44295604	1.4212847	-0.11288383	-0.45189788	1.4349184	0.21581323	-0.51342535	1.477372	0.052962706	-0.59954308	1.0893975	-0.17036899	-0.55038529	1.0826459	0.32056249	-0.48361789	0.85511783	-0.21079872	-0.35508423	0.88984046	0.29113825
